#N canvas 660 65 852 889 10;
#X obj 246 394 dac~ 1 2;
#X obj 20 130 *~;
#X obj 18 27 osc~ 261.63;
#X obj 38 57 adc~ 3;
#X obj 110 130 *~;
#X obj 108 27 osc~ 329.63;
#X obj 128 57 adc~ 4;
#X obj 20 262 *~;
#X obj 20 171 osc~ 392;
#X obj 40 201 adc~ 5;
#X obj 110 262 *~;
#X obj 110 171 osc~ 493.88;
#X obj 20 395 *~;
#X obj 20 302 osc~ 587.33;
#X obj 110 395 *~;
#X obj 110 302 osc~ 698.46;
#X obj 20 544 *~;
#X obj 20 438 osc~ 880;
#X obj 40 468 adc~ 9;
#X obj 110 438 osc~ 1046.5;
#X obj 142 467 adc~ 10;
#X text 230 180 ============;
#X obj 130 332 adc~ 8;
#X obj 40 332 adc~ 7;
#X obj 130 200 adc~ 6;
#X obj 20 152 throw~ out;
#X obj 248 279 catch~ out;
#X obj 110 415 throw~ out;
#X obj 20 415 throw~ out;
#X obj 110 151 throw~ out;
#X obj 110 282 throw~ out;
#X obj 20 282 throw~ out;
#X obj 20 564 throw~ out;
#X text 210 20 ............................;
#X text 210 30 . ____ ._____ _ .......___ .;
#X text 210 40 .| __ )| ____| |....../ _ |.;
#X text 210 50 .| __ || __|.| |...../ _| |.;
#X text 210 60 .| |_) | |___| |___ / ___ |.;
#X text 210 70 .|____/|_____|_____/_/..._|.io;
#X text 210 80 ............................;
#X obj 112 543 *~;
#X text 230 190 use to test PEPPER knobs;
#X text 230 170 Hello Cmaj+!;
#X obj 40 90 *~ 0.125;
#X obj 130 90 *~ 0.125;
#X obj 40 230 *~ 0.125;
#X obj 130 230 *~ 0.125;
#X obj 40 360 *~ 0.125;
#X obj 125 363 *~ 0.125;
#X obj 50 510 *~ 0.125;
#X obj 145 508 *~ 0.125;
#X obj 112 563 throw~ nowhere;
#X obj 267 345 *~;
#X connect 1 0 25 0;
#X connect 2 0 1 0;
#X connect 3 0 43 0;
#X connect 4 0 29 0;
#X connect 5 0 4 0;
#X connect 6 0 44 0;
#X connect 7 0 31 0;
#X connect 8 0 7 0;
#X connect 9 0 45 0;
#X connect 10 0 30 0;
#X connect 11 0 10 0;
#X connect 12 0 28 0;
#X connect 13 0 12 0;
#X connect 14 0 27 0;
#X connect 15 0 14 0;
#X connect 16 0 32 0;
#X connect 17 0 16 0;
#X connect 18 0 49 0;
#X connect 19 0 40 0;
#X connect 20 0 50 0;
#X connect 20 0 52 1;
#X connect 22 0 48 0;
#X connect 23 0 47 0;
#X connect 24 0 46 0;
#X connect 26 0 52 0;
#X connect 40 0 51 0;
#X connect 43 0 1 1;
#X connect 44 0 4 1;
#X connect 45 0 7 1;
#X connect 46 0 10 1;
#X connect 47 0 12 1;
#X connect 48 0 14 1;
#X connect 49 0 16 1;
#X connect 50 0 40 1;
#X connect 52 0 0 0;
#X connect 52 0 0 1;
