#N canvas 702 320 854 541 10;
#X obj 64 192 +~;
#X obj 64 329 dac~ 1 2;
#X obj 40 160 *~;
#X obj 40 100 osc~ 261.63;
#X obj 60 130 adc~ 3;
#X obj 130 160 *~;
#X obj 130 100 osc~ 329.63;
#X obj 150 130 adc~ 4;
#X obj 220 160 *~;
#X obj 220 100 osc~ 392;
#X obj 240 130 adc~ 5;
#X obj 310 160 *~;
#X obj 310 100 osc~ 493.88;
#X obj 400 160 *~;
#X obj 400 100 osc~ 587.33;
#X obj 490 160 *~;
#X obj 490 100 osc~ 698.46;
#X obj 580 160 *~;
#X obj 580 100 osc~ 880;
#X obj 600 130 adc~ 9;
#X obj 670 160 *~;
#X obj 670 100 osc~ 1046.5;
#X obj 690 130 adc~ 10;
#X text 35 32 Hello Chord!;
#X text 35 42 ============;
#X text 35 52 use to test Pepper knobs;
#X obj 154 224 adc~ 10;
#X obj 64 281 *~;
#X obj 510 130 adc~ 8;
#X obj 420 130 adc~ 7;
#X obj 330 129 adc~ 6;
#X obj 64 238 *~ 0.286;
#X obj 132 256 *~ 2;
#X connect 0 0 31 0;
#X connect 2 0 0 0;
#X connect 3 0 2 0;
#X connect 4 0 2 1;
#X connect 5 0 0 0;
#X connect 6 0 5 0;
#X connect 7 0 5 1;
#X connect 8 0 0 0;
#X connect 9 0 8 0;
#X connect 10 0 8 1;
#X connect 11 0 0 0;
#X connect 12 0 11 0;
#X connect 13 0 0 0;
#X connect 14 0 13 0;
#X connect 15 0 0 0;
#X connect 16 0 15 0;
#X connect 17 0 0 0;
#X connect 18 0 17 0;
#X connect 19 0 17 1;
#X connect 21 0 20 0;
#X connect 22 0 20 1;
#X connect 26 0 32 0;
#X connect 27 0 1 0;
#X connect 28 0 15 1;
#X connect 29 0 13 1;
#X connect 30 0 11 1;
#X connect 31 0 27 0;
#X connect 32 0 27 1;
